<svg xmlns="http://www.w3.org/2000/svg" width="1200" height="630" viewBox="0 0 1200 630" font-family="Segoe UI, system-ui, sans-serif">
  <defs>
    <linearGradient id="bg" x1="0" y1="0" x2="1" y2="1">
      <stop offset="0" stop-color="#101014"/>
      <stop offset="1" stop-color="#070708"/>
    </linearGradient>
    <linearGradient id="title" x1="0" y1="0" x2="1" y2="0">
      <stop offset="0" stop-color="#ffffff"/>
      <stop offset="1" stop-color="#9aa0a6"/>
    </linearGradient>
  </defs>
  <rect width="1200" height="630" fill="url(#bg)"/>
  <g transform="translate(80,150)">
    <rect x="0" y="0" width="20" height="20" rx="4" fill="#f0f0f0"/>
    <rect x="26" y="0" width="20" height="20" rx="4" fill="#e63946"/>
    <rect x="52" y="0" width="20" height="20" rx="4" fill="#2dc653"/>
    <rect x="0" y="26" width="20" height="20" rx="4" fill="#f77f00"/>
    <rect x="26" y="26" width="20" height="20" rx="4" fill="#ffd60a"/>
    <rect x="52" y="26" width="20" height="20" rx="4" fill="#4895ef"/>
  </g>
  <text x="80" y="290" font-size="84" font-weight="800" fill="url(#title)" letter-spacing="-3">Rubik&apos;s Cube</text>
  <text x="84" y="350" font-size="40" font-weight="700" fill="#2dc653" letter-spacing="-1">Solver</text>
  <text x="84" y="430" font-size="24" fill="#6b7177">Kociemba two-phase  ·  guaranteed ≤ 20 moves</text>
  <text x="84" y="466" font-size="24" fill="#6b7177">Vue 3  ·  TypeScript  ·  Vite  ·  step-by-step animation</text>
  <g font-size="18" font-weight="600">
    <rect x="84" y="500" width="118" height="34" rx="17" fill="#1a1a1a" stroke="#2a2a2a"/>
    <text x="143" y="523" fill="#9aa0a6" text-anchor="middle">RU / EN</text>
    <rect x="212" y="500" width="150" height="34" rx="17" fill="#1a1a1a" stroke="#2a2a2a"/>
    <text x="287" y="523" fill="#9aa0a6" text-anchor="middle">3D animation</text>
    <rect x="372" y="500" width="150" height="34" rx="17" fill="#1a1a1a" stroke="#2a2a2a"/>
    <text x="447" y="523" fill="#9aa0a6" text-anchor="middle">localStorage</text>
  </g>
  <rect x="886" y="181" width="26" height="26" rx="4" fill="#f0f0f0"/>
  <rect x="915" y="181" width="26" height="26" rx="4" fill="#f0f0f0"/>
  <rect x="944" y="181" width="26" height="26" rx="4" fill="#f0f0f0"/>
  <rect x="886" y="210" width="26" height="26" rx="4" fill="#f0f0f0"/>
  <rect x="915" y="210" width="26" height="26" rx="4" fill="#f0f0f0"/>
  <rect x="944" y="210" width="26" height="26" rx="4" fill="#f0f0f0"/>
  <rect x="886" y="239" width="26" height="26" rx="4" fill="#f0f0f0"/>
  <rect x="915" y="239" width="26" height="26" rx="4" fill="#f0f0f0"/>
  <rect x="944" y="239" width="26" height="26" rx="4" fill="#f0f0f0"/>
  <rect x="792" y="275" width="26" height="26" rx="4" fill="#f77f00"/>
  <rect x="821" y="275" width="26" height="26" rx="4" fill="#f77f00"/>
  <rect x="850" y="275" width="26" height="26" rx="4" fill="#f77f00"/>
  <rect x="792" y="304" width="26" height="26" rx="4" fill="#f77f00"/>
  <rect x="821" y="304" width="26" height="26" rx="4" fill="#f77f00"/>
  <rect x="850" y="304" width="26" height="26" rx="4" fill="#f77f00"/>
  <rect x="792" y="333" width="26" height="26" rx="4" fill="#f77f00"/>
  <rect x="821" y="333" width="26" height="26" rx="4" fill="#f77f00"/>
  <rect x="850" y="333" width="26" height="26" rx="4" fill="#f77f00"/>
  <rect x="886" y="275" width="26" height="26" rx="4" fill="#2dc653"/>
  <rect x="915" y="275" width="26" height="26" rx="4" fill="#2dc653"/>
  <rect x="944" y="275" width="26" height="26" rx="4" fill="#2dc653"/>
  <rect x="886" y="304" width="26" height="26" rx="4" fill="#2dc653"/>
  <rect x="915" y="304" width="26" height="26" rx="4" fill="#2dc653"/>
  <rect x="944" y="304" width="26" height="26" rx="4" fill="#2dc653"/>
  <rect x="886" y="333" width="26" height="26" rx="4" fill="#2dc653"/>
  <rect x="915" y="333" width="26" height="26" rx="4" fill="#2dc653"/>
  <rect x="944" y="333" width="26" height="26" rx="4" fill="#2dc653"/>
  <rect x="980" y="275" width="26" height="26" rx="4" fill="#e63946"/>
  <rect x="1009" y="275" width="26" height="26" rx="4" fill="#e63946"/>
  <rect x="1038" y="275" width="26" height="26" rx="4" fill="#e63946"/>
  <rect x="980" y="304" width="26" height="26" rx="4" fill="#e63946"/>
  <rect x="1009" y="304" width="26" height="26" rx="4" fill="#e63946"/>
  <rect x="1038" y="304" width="26" height="26" rx="4" fill="#e63946"/>
  <rect x="980" y="333" width="26" height="26" rx="4" fill="#e63946"/>
  <rect x="1009" y="333" width="26" height="26" rx="4" fill="#e63946"/>
  <rect x="1038" y="333" width="26" height="26" rx="4" fill="#e63946"/>
  <rect x="1074" y="275" width="26" height="26" rx="4" fill="#4895ef"/>
  <rect x="1103" y="275" width="26" height="26" rx="4" fill="#4895ef"/>
  <rect x="1132" y="275" width="26" height="26" rx="4" fill="#4895ef"/>
  <rect x="1074" y="304" width="26" height="26" rx="4" fill="#4895ef"/>
  <rect x="1103" y="304" width="26" height="26" rx="4" fill="#4895ef"/>
  <rect x="1132" y="304" width="26" height="26" rx="4" fill="#4895ef"/>
  <rect x="1074" y="333" width="26" height="26" rx="4" fill="#4895ef"/>
  <rect x="1103" y="333" width="26" height="26" rx="4" fill="#4895ef"/>
  <rect x="1132" y="333" width="26" height="26" rx="4" fill="#4895ef"/>
  <rect x="886" y="369" width="26" height="26" rx="4" fill="#ffd60a"/>
  <rect x="915" y="369" width="26" height="26" rx="4" fill="#ffd60a"/>
  <rect x="944" y="369" width="26" height="26" rx="4" fill="#ffd60a"/>
  <rect x="886" y="398" width="26" height="26" rx="4" fill="#ffd60a"/>
  <rect x="915" y="398" width="26" height="26" rx="4" fill="#ffd60a"/>
  <rect x="944" y="398" width="26" height="26" rx="4" fill="#ffd60a"/>
  <rect x="886" y="427" width="26" height="26" rx="4" fill="#ffd60a"/>
  <rect x="915" y="427" width="26" height="26" rx="4" fill="#ffd60a"/>
  <rect x="944" y="427" width="26" height="26" rx="4" fill="#ffd60a"/>
</svg>